<svg width="344" height="344" viewBox="0 0 344 344" fill="none" xmlns="http://www.w3.org/2000/svg">
  <g xmlns="http://www.w3.org/2000/svg" transform="translate(0.000000,344.000000) scale(0.100000,-0.100000)"
    fill="#396940" stroke="none">
    <path
      d="M571 3409 c-256 -50 -458 -238 -521 -485 -19 -75 -20 -115 -20 -1198 0 -1239 -2 -1182 65 -1321 82 -170 241 -299 435 -352 61 -17 141 -18 1190 -18 1049 0 1129 1 1190 18 197 54 347 176 435 352 68 137 65 80 65 1321 0 1083 -1 1123 -20 1198 -62 243 -257 429 -503 480 -67 14 -214 16 -1174 15 -604 -1 -1118 -5 -1142 -10z m1444 -853 c166 -57 283 -163 366 -331 27 -55 49 -105 49 -111 0 -14 -210 -68 -220 -57 -4 4 -15 30 -24 56 -26 69 -94 166 -143 203 -70 53 -145 77 -259 82 -121 5 -187 -7 -284 -53 -172 -83 -271 -266 -295 -545 -8 -94 9 -263 36 -361 66 -238 229 -376 468 -395 237 -19 432 113 503 340 12 39 25 75 29 79 5 6 207 -37 216 -47 5 -5 -45 -142 -69 -191 -88 -172 -249 -299 -448 -352 -140 -37 -394 -17 -527 42 -292 130 -456 454 -440 874 6 177 28 268 93 399 78 156 198 267 364 339 118 50 194 63 360 60 128 -3 155 -7 225 -31z" />
  </g>
  <path xmlns="http://www.w3.org/2000/svg"
    d="M571 3409 c-256 -50 -458 -238 -521 -485 -19 -75 -20 -115 -20 -1198 0 -1239 -2 -1182 65 -1321 82 -170 241 -299 435 -352 61 -17 141 -18 1190 -18 1049 0 1129 1 1190 18 197 54 347 176 435 352 68 137 65 80 65 1321 0 1083 -1 1123 -20 1198 -62 243 -257 429 -503 480 -67 14 -214 16 -1174 15 -604 -1 -1118 -5 -1142 -10z m1444 -853 c166 -57 283 -163 366 -331 27 -55 49 -105 49 -111 0 -14 -210 -68 -220 -57 -4 4 -15 30 -24 56 -26 69 -94 166 -143 203 -70 53 -145 77 -259 82 -121 5 -187 -7 -284 -53 -172 -83 -271 -266 -295 -545 -8 -94 9 -263 36 -361 66 -238 229 -376 468 -395 237 -19 432 113 503 340 12 39 25 75 29 79 5 6 207 -37 216 -47 5 -5 -45 -142 -69 -191 -88 -172 -249 -299 -448 -352 -140 -37 -394 -17 -527 42 -292 130 -456 454 -440 874 6 177 28 268 93 399 78 156 198 267 364 339 118 50 194 63 360 60 128 -3 155 -7 225 -31z" />
</svg>